[
  {
    "task": "task3_temporal_localization",
    "topic": "02_Job_Interviews",
    "video_id": "xliS9BijbOs",
    "segment": {
      "start": 0,
      "end": 60
    },
    "error": "All 3 attempts failed. Last error: JSON parsing failed: Expecting value: line 1 column 1 (char 0)"
  },
  {
    "task": "task3_temporal_localization",
    "topic": "02_Job_Interviews",
    "video_id": "2Ba98C_Zess",
    "segment": {
      "start": 150,
      "end": 200
    },
    "error": "All 3 attempts failed. Last error: JSON parsing failed: Expecting value: line 1 column 1 (char 0)"
  },
  {
    "task": "task3_temporal_localization",
    "topic": "02_Job_Interviews",
    "video_id": "IwGQoK9v5AA",
    "segment": {
      "start": 0,
      "end": 97
    },
    "error": "All 3 attempts failed. Last error: JSON parsing failed: Extra data: line 26 column 1 (char 735)"
  },
  {
    "task": "task3_temporal_localization",
    "topic": "02_Job_Interviews",
    "video_id": "2dgx53kiOBQ",
    "segment": {
      "start": 0,
      "end": 46
    },
    "error": "All 3 attempts failed. Last error: JSON parsing failed: Expecting value: line 1 column 1 (char 0)"
  },
  {
    "task": "task3_temporal_localization",
    "topic": "02_Job_Interviews",
    "video_id": "qKctM_6Ymbw",
    "segment": {
      "start": 0,
      "end": 42
    },
    "error": "All 3 attempts failed. Last error: JSON parsing failed: Expecting value: line 1 column 1 (char 0)"
  },
  {
    "task": "task3_temporal_localization",
    "topic": "02_Job_Interviews",
    "video_id": "VV9MlsraXmA",
    "segment": {
      "start": 0,
      "end": 32
    },
    "error": "All 3 attempts failed. Last error: JSON parsing failed: Expecting value: line 1 column 1 (char 0)"
  },
  {
    "task": "task3_temporal_localization",
    "topic": "02_Job_Interviews",
    "video_id": "N6M3gm6A4lw",
    "segment": {
      "start": 510,
      "end": 710
    },
    "error": "All 3 attempts failed. Last error: JSON parsing failed: Extra data: line 26 column 1 (char 788)"
  },
  {
    "task": "task3_temporal_localization",
    "topic": "02_Job_Interviews",
    "video_id": "VLxZYcza_Cg",
    "segment": {
      "start": 150,
      "end": 360
    },
    "error": "All 3 attempts failed. Last error: JSON parsing failed: Extra data: line 20 column 1 (char 559)"
  },
  {
    "task": "task3_temporal_localization",
    "topic": "02_Job_Interviews",
    "video_id": "TLIoOLOjqwg",
    "segment": {
      "start": 150,
      "end": 360
    },
    "error": "All 3 attempts failed. Last error: JSON parsing failed: Extra data: line 20 column 1 (char 586)"
  },
  {
    "task": "task3_temporal_localization",
    "topic": "02_Job_Interviews",
    "video_id": "TLIoOLOjqwg",
    "segment": {
      "start": 510,
      "end": 720
    },
    "error": "All 3 attempts failed. Last error: JSON parsing failed: Extra data: line 27 column 1 (char 886)"
  },
  {
    "task": "task3_temporal_localization",
    "topic": "02_Job_Interviews",
    "video_id": "TLIoOLOjqwg",
    "segment": {
      "start": 0,
      "end": 210
    },
    "error": "All 3 attempts failed. Last error: JSON parsing failed: Extra data: line 20 column 1 (char 581)"
  },
  {
    "task": "task3_temporal_localization",
    "topic": "02_Job_Interviews",
    "video_id": "JQlpVKkKC_M",
    "segment": {
      "start": 870,
      "end": 1080
    },
    "error": "Failed to extract audio segment: ffmpeg version 7.0.2-static https://johnvansickle.com/ffmpeg/  Copyright (c) 2000-2024 the FFmpeg developers\n  built with gcc 8 (Debian 8.3.0-6)\n  configuration: --enable-gpl --enable-version3 --enable-static --disable-debug --disable-ffplay --disable-indev=sndio --disable-outdev=sndio --cc=gcc --enable-fontconfig --enable-frei0r --enable-gnutls --enable-gmp --enable-libgme --enable-gray --enable-libaom --enable-libfribidi --enable-libass --enable-libvmaf --enable-libfreetype --enable-libmp3lame --enable-libopencore-amrnb --enable-libopencore-amrwb --enable-libopenjpeg --enable-librubberband --enable-libsoxr --enable-libspeex --enable-libsrt --enable-libvorbis --enable-libopus --enable-libtheora --enable-libvidstab --enable-libvo-amrwbenc --enable-libvpx --enable-libwebp --enable-libx264 --enable-libx265 --enable-libxml2 --enable-libdav1d --enable-libxvid --enable-libzvbi --enable-libzimg\n  libavutil      59.  8.100 / 59.  8.100\n  libavcodec     61.  3.100 / 61.  3.100\n  libavformat    61.  1.100 / 61.  1.100\n  libavdevice    61.  1.100 / 61.  1.100\n  libavfilter    10.  1.100 / 10.  1.100\n  libswscale      8.  1.100 /  8.  1.100\n  libswresample   5.  1.100 /  5.  1.100\n  libpostproc    58.  1.100 / 58.  1.100\nInput #0, mov,mp4,m4a,3gp,3g2,mj2, from '/projects/aixpert/users/ahmadradw/VideoQA-Agentic/VideoAudioRepDataset/dataset/audios/02_Job_Interviews/audio_018.m4a':\n  Metadata:\n    major_brand     : M4A \n    minor_version   : 512\n    compatible_brands: isomiso2\n    encoder         : Lavf57.83.100\n  Duration: 00:36:00.83, start: 0.000000, bitrate: 192 kb/s\n  Stream #0:0[0x1](und): Audio: aac (LC) (mp4a / 0x6134706D), 48000 Hz, stereo, fltp, 191 kb/s (default)\n      Metadata:\n        handler_name    : SoundHandler\n        vendor_id       : [0][0][0][0]\nStream mapping:\n  Stream #0:0 -> #0:0 (aac (native) -> aac (native))\nPress [q] to stop, [?] for help\nOutput #0, ipod, to '/h/ahmadradw/scratch/temp_segments/seg_018_870_1080.m4a':\n  Metadata:\n    major_brand     : M4A \n    minor_version   : 512\n    compatible_brands: isomiso2\n    encoder         : Lavf61.1.100\n  Stream #0:0(und): Audio: aac (LC) (mp4a / 0x6134706D), 48000 Hz, stereo, fltp, 128 kb/s (default)\n      Metadata:\n        handler_name    : SoundHandler\n        vendor_id       : [0][0][0][0]\n        encoder         : Lavc61.3.100 aac\nsize=     256KiB time=00:00:22.44 bitrate=  93.5kbits/s speed=44.9x    \nsize=     512KiB time=00:00:46.40 bitrate=  90.4kbits/s speed=46.4x    \nsize=    1024KiB time=00:01:09.12 bitrate= 121.4kbits/s speed=46.1x    \nsize=    1280KiB time=00:01:33.95 bitrate= 111.6kbits/s speed=  47x    \nsize=    1792KiB time=00:01:57.78 bitrate= 124.6kbits/s speed=47.1x    \nsize=    2048KiB time=00:02:22.40 bitrate= 117.8kbits/s speed=47.5x    \nsize=    2560KiB time=00:02:46.27 bitrate= 126.1kbits/s speed=47.5x    \nsize=    2816KiB time=00:03:10.91 bitrate= 120.8kbits/s speed=47.7x    \n[out#0/ipod @ 0x69a7d40] Error closing file: Stale file handle\n[out#0/ipod @ 0x69a7d40] video:0KiB audio:3279KiB subtitle:0KiB other streams:0KiB global headers:0KiB muxing overhead: 1.198013%\nsize=    3318KiB time=00:03:30.00 bitrate= 129.4kbits/s speed=47.5x    \n[aac @ 0x690cb40] Qavg: 916.967\nConversion failed!"
  },
  {
    "task": "task3_temporal_localization",
    "topic": "02_Job_Interviews",
    "video_id": "JQlpVKkKC_M",
    "segment": {
      "start": 1230,
      "end": 1440
    },
    "error": "Failed to extract audio segment: ffmpeg version 7.0.2-static https://johnvansickle.com/ffmpeg/  Copyright (c) 2000-2024 the FFmpeg developers\n  built with gcc 8 (Debian 8.3.0-6)\n  configuration: --enable-gpl --enable-version3 --enable-static --disable-debug --disable-ffplay --disable-indev=sndio --disable-outdev=sndio --cc=gcc --enable-fontconfig --enable-frei0r --enable-gnutls --enable-gmp --enable-libgme --enable-gray --enable-libaom --enable-libfribidi --enable-libass --enable-libvmaf --enable-libfreetype --enable-libmp3lame --enable-libopencore-amrnb --enable-libopencore-amrwb --enable-libopenjpeg --enable-librubberband --enable-libsoxr --enable-libspeex --enable-libsrt --enable-libvorbis --enable-libopus --enable-libtheora --enable-libvidstab --enable-libvo-amrwbenc --enable-libvpx --enable-libwebp --enable-libx264 --enable-libx265 --enable-libxml2 --enable-libdav1d --enable-libxvid --enable-libzvbi --enable-libzimg\n  libavutil      59.  8.100 / 59.  8.100\n  libavcodec     61.  3.100 / 61.  3.100\n  libavformat    61.  1.100 / 61.  1.100\n  libavdevice    61.  1.100 / 61.  1.100\n  libavfilter    10.  1.100 / 10.  1.100\n  libswscale      8.  1.100 /  8.  1.100\n  libswresample   5.  1.100 /  5.  1.100\n  libpostproc    58.  1.100 / 58.  1.100\nInput #0, mov,mp4,m4a,3gp,3g2,mj2, from '/projects/aixpert/users/ahmadradw/VideoQA-Agentic/VideoAudioRepDataset/dataset/audios/02_Job_Interviews/audio_018.m4a':\n  Metadata:\n    major_brand     : M4A \n    minor_version   : 512\n    compatible_brands: isomiso2\n    encoder         : Lavf57.83.100\n  Duration: 00:36:00.83, start: 0.000000, bitrate: 192 kb/s\n  Stream #0:0[0x1](und): Audio: aac (LC) (mp4a / 0x6134706D), 48000 Hz, stereo, fltp, 191 kb/s (default)\n      Metadata:\n        handler_name    : SoundHandler\n        vendor_id       : [0][0][0][0]\nStream mapping:\n  Stream #0:0 -> #0:0 (aac (native) -> aac (native))\nPress [q] to stop, [?] for help\nOutput #0, ipod, to '/h/ahmadradw/scratch/temp_segments/seg_018_1230_1440.m4a':\n  Metadata:\n    major_brand     : M4A \n    minor_version   : 512\n    compatible_brands: isomiso2\n    encoder         : Lavf61.1.100\n  Stream #0:0(und): Audio: aac (LC) (mp4a / 0x6134706D), 48000 Hz, stereo, fltp, 128 kb/s (default)\n      Metadata:\n        handler_name    : SoundHandler\n        vendor_id       : [0][0][0][0]\n        encoder         : Lavc61.3.100 aac\nsize=       0KiB time=00:00:16.10 bitrate=   0.0kbits/s speed=32.2x    \nsize=     512KiB time=00:00:39.46 bitrate= 106.3kbits/s speed=39.5x    \nsize=     768KiB time=00:01:02.48 bitrate= 100.7kbits/s speed=41.6x    \nsize=    1280KiB time=00:01:27.33 bitrate= 120.1kbits/s speed=43.7x    \nsize=    1536KiB time=00:01:53.49 bitrate= 110.9kbits/s speed=45.4x    \nsize=    2048KiB time=00:02:17.57 bitrate= 121.9kbits/s speed=45.9x    \nsize=    2304KiB time=00:02:42.21 bitrate= 116.4kbits/s speed=46.3x    \nsize=    2816KiB time=00:03:07.94 bitrate= 122.7kbits/s speed=  47x    \n[out#0/ipod @ 0x7178d40] Error closing file: Stale file handle\n[out#0/ipod @ 0x7178d40] video:0KiB audio:3281KiB subtitle:0KiB other streams:0KiB global headers:0KiB muxing overhead: 1.197614%\nsize=    3320KiB time=00:03:30.00 bitrate= 129.5kbits/s speed=47.1x    \n[aac @ 0x70ddb40] Qavg: 851.865\nConversion failed!"
  },
  {
    "task": "task3_temporal_localization",
    "topic": "02_Job_Interviews",
    "video_id": "ZgVeEGCJ9s4",
    "segment": {
      "start": 150,
      "end": 360
    },
    "error": "All 3 attempts failed. Last error: JSON parsing failed: Extra data: line 20 column 1 (char 584)"
  },
  {
    "task": "task3_temporal_localization",
    "topic": "02_Job_Interviews",
    "video_id": "ZgVeEGCJ9s4",
    "segment": {
      "start": 510,
      "end": 720
    },
    "error": "All 3 attempts failed. Last error: Generation failed: Video file not found: /h/ahmadradw/scratch/temp_segments/seg_019_510_720.mp4"
  },
  {
    "task": "task3_temporal_localization",
    "topic": "02_Job_Interviews",
    "video_id": "ZgVeEGCJ9s4",
    "segment": {
      "start": 690,
      "end": 900
    },
    "error": "All 3 attempts failed. Last error: Generation failed: Video file not found: /h/ahmadradw/scratch/temp_segments/seg_019_690_900.mp4"
  },
  {
    "task": "task3_temporal_localization",
    "topic": "02_Job_Interviews",
    "video_id": "ZgVeEGCJ9s4",
    "segment": {
      "start": 1230,
      "end": 1302
    },
    "error": "All 3 attempts failed. Last error: JSON parsing failed: Expecting value: line 1 column 1 (char 0)"
  },
  {
    "task": "task3_temporal_localization",
    "topic": "02_Job_Interviews",
    "video_id": "k7uk0udlw2U",
    "segment": {
      "start": 2670,
      "end": 2880
    },
    "error": "All 3 attempts failed. Last error: Generation failed: Video file not found: /h/ahmadradw/scratch/temp_segments/seg_020_2670_2880.mp4"
  }
]